<?xml version="1.0" standalone="no"?>
<!DOCTYPE svg PUBLIC "-//W3C//DTD SVG 20010904//EN"
 "http://www.w3.org/TR/2001/REC-SVG-20010904/DTD/svg10.dtd">
<svg version="1.0" xmlns="http://www.w3.org/2000/svg"
 width="522.000000pt" height="525.000000pt" viewBox="0 0 522.000000 525.000000"
 preserveAspectRatio="xMidYMid meet">

<g transform="translate(0.000000,525.000000) scale(0.100000,-0.100000)"
fill="#000000" stroke="none">
<path d="M2537 3960 c-75 -13 -134 -57 -170 -125 -18 -33 -23 -63 -27 -170
l-5 -130 -120 -5 -120 -5 -12 -190 c-6 -104 -16 -266 -22 -360 -32 -482 -41
-624 -41 -667 l0 -48 595 0 595 0 0 28 c0 15 -11 196 -24 402 -14 206 -30 461
-36 565 -5 105 -13 209 -16 232 l-5 42 -117 3 -117 3 -5 125 c-8 172 -33 225
-130 275 -52 26 -152 38 -223 25z m210 -41 c51 -24 98 -83 113 -140 6 -21 9
-85 8 -141 l-3 -103 -252 -3 -253 -2 0 114 c0 158 29 228 112 272 74 39 198
40 275 3z m89 -653 c13 -22 15 -73 15 -412 -1 -345 -3 -390 -18 -406 -15 -16
-36 -18 -219 -18 -203 0 -204 0 -219 24 -14 20 -15 74 -13 416 3 374 4 392 22
406 16 11 63 14 218 14 l198 0 16 -24z"/>
<path d="M2390 2855 l0 -335 225 0 225 0 0 335 0 335 -225 0 -225 0 0 -335z"/>
<path d="M2585 2490 c-3 -5 -3 -19 0 -31 10 -31 60 -23 60 11 0 20 -6 26 -27
28 -14 2 -29 -2 -33 -8z"/>
<path d="M1480 1895 l0 -165 30 0 30 0 0 65 0 65 44 0 c63 0 76 17 76 100 0
91 -9 100 -106 100 l-74 0 0 -165z m118 63 c3 -47 3 -48 -27 -48 -30 0 -31 1
-31 51 0 49 1 50 28 47 25 -3 27 -7 30 -50z"/>
<path d="M1700 1895 l0 -165 35 0 35 0 0 65 0 65 30 0 30 0 0 -65 0 -65 35 0
35 0 0 165 0 165 -35 0 -35 0 0 -70 0 -70 -30 0 -30 0 0 70 0 70 -35 0 -35 0
0 -165z"/>
<path d="M1966 2044 c-13 -12 -16 -41 -16 -145 0 -72 5 -139 10 -150 9 -16 22
-19 85 -19 63 0 76 3 85 19 5 11 10 77 10 146 0 69 -5 135 -10 146 -9 16 -22
19 -80 19 -49 0 -73 -4 -84 -16z m104 -149 l0 -125 -25 0 -25 0 0 125 0 125
25 0 25 0 0 -125z"/>
<path d="M2212 2048 c-8 -8 -12 -59 -12 -165 l0 -153 30 0 29 0 3 143 c3 134
4 142 23 142 19 0 20 -8 23 -142 l3 -143 34 0 35 0 0 146 c0 81 -5 154 -10
165 -9 16 -22 19 -78 19 -40 0 -73 -5 -80 -12z"/>
<path d="M2430 1895 l0 -165 75 0 75 0 0 30 c0 28 -2 30 -40 30 l-40 0 0 40
c0 39 1 40 35 40 31 0 35 3 35 25 0 22 -4 25 -35 25 -34 0 -35 1 -35 40 l0 40
40 0 c38 0 40 2 40 30 l0 30 -75 0 -75 0 0 -165z"/>
<path d="M2736 2038 c-21 -29 -21 -117 -1 -145 11 -15 28 -23 58 -25 42 -3 42
-3 45 -45 3 -40 1 -43 -22 -43 -19 0 -26 5 -26 20 0 16 -7 20 -35 20 -30 0
-35 -3 -35 -23 0 -12 7 -33 16 -45 13 -19 24 -22 78 -22 35 0 67 5 74 12 7 7
12 43 12 90 0 87 -8 98 -74 98 -35 0 -36 1 -36 40 0 36 3 40 25 40 16 0 25 -6
25 -15 0 -10 10 -15 30 -15 24 0 30 4 30 21 0 47 -17 59 -85 59 -55 0 -66 -3
-79 -22z"/>
<path d="M2940 2030 c0 -25 4 -30 25 -30 l25 0 0 -135 0 -135 35 0 35 0 0 135
0 135 25 0 c21 0 25 5 25 30 l0 30 -85 0 -85 0 0 -30z"/>
<path d="M3162 2048 c-18 -18 -17 -291 2 -307 9 -7 41 -11 82 -9 88 4 94 13
94 163 0 150 -5 159 -95 163 -46 2 -74 -1 -83 -10z m103 -153 l0 -120 -25 0
c-25 0 -25 0 -28 109 -1 61 0 116 3 124 3 7 15 12 27 10 22 -3 23 -6 23 -123z"/>
<path d="M3390 1895 l0 -165 35 0 35 0 0 71 c0 67 1 70 23 67 20 -3 22 -9 25
-70 3 -68 3 -68 32 -68 l30 0 0 79 c0 44 -5 83 -10 86 -6 4 -4 12 5 21 23 23
20 99 -5 124 -16 16 -33 20 -95 20 l-75 0 0 -165z m118 68 c-3 -40 -6 -48 -23
-48 -17 0 -20 8 -23 48 -3 45 -2 47 23 47 25 0 26 -2 23 -47z"/>
<path d="M3630 1895 l0 -165 70 0 70 0 0 30 c0 28 -2 30 -40 30 l-40 0 0 40 0
40 40 0 c36 0 40 3 40 24 0 21 -5 25 -37 28 -36 3 -38 5 -41 41 l-3 37 40 0
c39 0 41 2 41 30 l0 30 -70 0 -70 0 0 -165z"/>
</g>
</svg>
